<svg xmlns="http://www.w3.org/2000/svg" viewBox="0 0 200 200"><defs></defs><circle cx="100" cy="100" r="90" fill="#16264E" stroke="#7FB2E5" stroke-width="6"/><circle cx="100" cy="100" r="80" fill="none" stroke="#7FB2E5" stroke-opacity="0.3" stroke-width="2"/>
<line x1="100" y1="62" x2="100" y2="152" stroke="#9AA5B8" stroke-width="6" stroke-linecap="round"/>
<circle cx="100" cy="58" r="7" fill="#9AA5B8"/>
<line x1="76" y1="148" x2="124" y2="148" stroke="#9AA5B8" stroke-width="5" stroke-linecap="round"/>
<line x1="48" y1="100" x2="152" y2="100" stroke="#7FB2E5" stroke-width="6"/>
<polygon points="34,100 56,86 56,114" fill="#7FB2E5"/><polygon points="166,100 144,86 144,114" fill="#7FB2E5"/>
<rect x="62" y="88" width="14" height="24" rx="3" fill="#6B7486"/><rect x="124" y="88" width="14" height="24" rx="3" fill="#4F7FB0"/>
<rect x="74" y="91" width="36" height="18" rx="9" fill="#B8C1D1"/>
<rect x="90" y="91" width="36" height="18" rx="9" fill="#A9CCF0"/>
<circle cx="93" cy="93" r="5" fill="#A9CCF0" stroke="#16264E" stroke-width="1.5"/><circle cx="101" cy="92" r="5" fill="#A9CCF0" stroke="#16264E" stroke-width="1.5"/><circle cx="109" cy="92" r="5" fill="#A9CCF0" stroke="#16264E" stroke-width="1.5"/>
<path d="M78,91 Q84,82 94,86" stroke="#B8C1D1" stroke-width="6" fill="none" stroke-linecap="round"/></svg>