<svg xmlns="http://www.w3.org/2000/svg" viewBox="0 0 200 200"><defs></defs><circle cx="100" cy="100" r="90" fill="#16264E" stroke="#22C55E" stroke-width="6"/><circle cx="100" cy="100" r="80" fill="none" stroke="#22C55E" stroke-opacity="0.3" stroke-width="2"/>
<path d="M56,146 C54,88 98,58 154,56 C156,112 120,148 56,146 Z" fill="#22C55E"/>
<path d="M60,142 Q100,108 146,62" stroke="#15803D" stroke-width="3.5" fill="none" stroke-linecap="round"/>
<path d="M82,122 L76,98 M100,106 L98,82 M86,118 L110,124 M104,102 L128,106" stroke="#15803D" stroke-width="2.5" stroke-linecap="round"/>
<circle cx="128" cy="44" r="7" fill="#9CA3AF" opacity="0.9"/><circle cx="138" cy="33" r="9" fill="#9CA3AF" opacity="0.75"/><circle cx="152" cy="25" r="11" fill="#9CA3AF" opacity="0.55"/>
<rect x="118" y="52" width="12" height="44" fill="#6B7280"/><rect x="115" y="50" width="18" height="6" rx="1" fill="#4B5563"/>
<polygon points="84,118 84,98 96,108 96,98 108,108 108,98 132,98 132,118" fill="#4B5563"/>
<rect x="90" y="110" width="6" height="5" fill="#FDE68A"/><rect x="102" y="110" width="6" height="5" fill="#FDE68A"/><rect x="114" y="110" width="6" height="5" fill="#FDE68A"/></svg>