<svg xmlns="http://www.w3.org/2000/svg" viewBox="0 0 200 200"><defs></defs><circle cx="100" cy="100" r="90" fill="#16264E" stroke="#E5E7EB" stroke-width="6"/><circle cx="100" cy="100" r="80" fill="none" stroke="#E5E7EB" stroke-opacity="0.3" stroke-width="2"/>
<path d="M92,72 Q86,52 98,38" stroke="#4ADE80" stroke-width="4" fill="none" stroke-linecap="round"/>
<ellipse cx="84" cy="56" rx="9" ry="4" fill="#4ADE80" transform="rotate(30 84 56)"/>
<g transform="translate(99,36)"><ellipse cx="0" cy="-10" rx="4.5" ry="9" fill="#fff" transform="rotate(0)"/><ellipse cx="0" cy="-10" rx="4.5" ry="9" fill="#fff" transform="rotate(36)"/><ellipse cx="0" cy="-10" rx="4.5" ry="9" fill="#fff" transform="rotate(72)"/><ellipse cx="0" cy="-10" rx="4.5" ry="9" fill="#fff" transform="rotate(108)"/><ellipse cx="0" cy="-10" rx="4.5" ry="9" fill="#fff" transform="rotate(144)"/><ellipse cx="0" cy="-10" rx="4.5" ry="9" fill="#fff" transform="rotate(180)"/><ellipse cx="0" cy="-10" rx="4.5" ry="9" fill="#fff" transform="rotate(216)"/><ellipse cx="0" cy="-10" rx="4.5" ry="9" fill="#fff" transform="rotate(252)"/><ellipse cx="0" cy="-10" rx="4.5" ry="9" fill="#fff" transform="rotate(288)"/><ellipse cx="0" cy="-10" rx="4.5" ry="9" fill="#fff" transform="rotate(324)"/><circle r="7" fill="#FACC15"/></g>
<path d="M70,70 H114 V122 L150,132 Q162,136 162,148 V154 H68 V146 Q68,140 70,134 Z" fill="#141414" stroke="#E5E7EB" stroke-width="3" stroke-linejoin="round"/>
<rect x="66" y="154" width="98" height="9" rx="3" fill="#E5E7EB"/>
<line x1="78" y1="78" x2="78" y2="118" stroke="#fff" stroke-opacity="0.3" stroke-width="5" stroke-linecap="round"/>
<circle cx="88" cy="96" r="3.5" fill="#FACC15"/><circle cx="102" cy="96" r="3.5" fill="#FACC15"/>
<path d="M85,105 Q95,115 105,105" stroke="#FACC15" stroke-width="3.5" fill="none" stroke-linecap="round"/></svg>